<svg width="30" height="30" viewBox="0 0 30 30" fill="none" xmlns="http://www.w3.org/2000/svg">
<path d="M6.28613 2.28571C10.4281 2.28593 13.7861 5.64371 13.7861 9.78571V13.7857H8C3.85787 13.7857 0.5 10.4278 0.5 6.28571V2.28571H6.28613Z" stroke="#897942" stroke-opacity="0.5"/>
<path d="M22.0004 16.2143C26.1423 16.2145 29.5004 19.5723 29.5004 23.7143V27.7143H23.7142C19.5721 27.7143 16.2142 24.3564 16.2142 20.2143V16.2143H22.0004Z" stroke="#897942" stroke-opacity="0.5"/>
<path d="M23.7142 0.5H27.7142V6.28613C27.714 10.4281 24.3562 13.7861 20.2142 13.7861H16.2142V8C16.2142 3.85787 19.5721 0.5 23.7142 0.5Z" stroke="#897942" stroke-opacity="0.5"/>
<path d="M9.78577 16.2143H13.7858V22.0004C13.7855 26.1424 10.4278 29.5004 6.28577 29.5004H2.28577V23.7143C2.28577 19.5722 5.64363 16.2143 9.78577 16.2143Z" stroke="#897942" stroke-opacity="0.5"/>
</svg>
